Coordinates
version=1
nRows=11
nColumns=63
inDegrees=yes

Units are S.I. units (second, meters, Newtons, ...)
If the header above contains a line with 'inDegrees', this indicates whether rotational values are in degrees (yes) or radians (no).

endheader
time	pelvis_tilt	pelvis_list	pelvis_rotation	pelvis_tx	pelvis_ty	pelvis_tz	hip_flexion_r	hip_adduction_r	hip_rotation_r	knee_angle_r	knee_angle_r_beta	ankle_angle_r	subtalar_angle_r	mtp_angle_r	hip_flexion_l	hip_adduction_l	hip_rotation_l	knee_angle_l	knee_angle_l_beta	ankle_angle_l	subtalar_angle_l	mtp_angle_l	L5_S1_Flex_Ext	L5_S1_Lat_Bending	L5_S1_axial_rotation	L4_L5_Flex_Ext	L4_L5_Lat_Bending	L4_L5_axial_rotation	L3_L4_Flex_Ext	L3_L4_Lat_Bending	L3_L4_axial_rotation	L2_L3_Flex_Ext	L2_L3_Lat_Bending	L2_L3_axial_rotation	L1_L2_Flex_Ext	L1_L2_Lat_Bending	L1_L2_axial_rotation	L1_T12_Flex_Ext	L1_T12_Lat_Bending	L1_T12_axial_rotation	Abs_r3	Abs_r2	Abs_r1	Abs_t1	Abs_t2	neck_flexion	neck_bending	neck_rotation	arm_flex_r	arm_add_r	arm_rot_r	elbow_flex_r	pro_sup_r	wrist_flex_r	wrist_dev_r	arm_flex_l	arm_add_l	arm_rot_l	elbow_flex_l	pro_sup_l	wrist_flex_l	wrist_dev_l
      6.81355932	      4.33712269	     -0.39884344	     84.79725012	      0.27946213	      1.04774719	      0.22917105	     -1.05339175	      3.01701837	    -12.11682086	     11.23090554	      0.19601628	     19.22615668	     17.65643132	      0.00000000	     -3.96634687	     -3.24745971	    -11.18409253	      7.82951637	      0.13665084	     23.92836633	     -1.82058147	      0.00000000	     -0.13334156	      0.60147120	      0.30019775	     -0.24762861	      0.79995670	      0.31896011	     -0.21906685	      1.46241708	      0.31896011	     -0.15239607	      1.46241708	      0.26267303	     -0.12382097	      1.22652008	      0.24391067	     -0.07619137	      0.93167889	      0.22514831	     -0.95244543	      6.80396254	      1.66960982	      0.00000000	      0.00000000	     22.88466924	      1.61291346	     32.44535361	     -7.86288878	    -19.55669595	     33.38763019	     26.67856324	     52.62312366	     -6.63021833	     -8.73022331	     60.97003462	     -1.47660083	     14.77493881	    138.02453751	     89.11203274	    -14.12624953	     26.41390312
      6.83050847	      4.32651151	     -0.44571967	     84.42159509	      0.27999900	      1.04766440	      0.22939788	     -1.01523956	      3.01483893	    -11.78897174	     11.15730892	      0.19473178	     19.20769496	     17.72514164	      0.00000000	     -3.93521293	     -3.25183329	    -11.87021763	      7.88433056	      0.13760753	     24.35234230	     -1.32634176	      0.00000000	     -0.13223347	      0.60257921	      0.34666063	     -0.24557079	      0.80143035	      0.36832692	     -0.21724638	      1.46511109	      0.36832692	     -0.15112964	      1.46511109	      0.30332805	     -0.12279200	      1.22877952	      0.28166176	     -0.07555821	      0.93339520	      0.25999547	     -0.94453049	      6.81649653	      1.92802241	      0.00000000	      0.00000000	     22.95682450	      1.84425842	     32.56484774	     -8.12403212	    -19.52109324	     32.28379543	     27.08639323	     53.51925869	     -6.49785941	     -8.53757193	     61.13514047	     -1.65604085	     14.61207807	    138.31852567	     89.11169614	    -14.39466470	     25.94456811
      6.84745763	      4.29717106	     -0.52720500	     84.28862287	      0.28031419	      1.04752679	      0.22947503	     -0.96580325	      3.02923015	    -11.49927253	     11.04086704	      0.19269948	     19.18399396	     17.53446840	      0.00000000	     -3.75740360	     -3.29483987	    -12.46339578	      8.17836297	      0.14273936	     24.75346831	     -0.80392477	      0.00000000	     -0.12732988	      0.60254240	      0.34236453	     -0.23646432	      0.80138139	      0.36376231	     -0.20919026	      1.46502158	      0.36376231	     -0.14552532	      1.46502158	      0.29956896	     -0.11823853	      1.22870446	      0.27817118	     -0.07275629	      0.93333817	      0.25677339	     -0.90950461	      6.81608010	      1.90412878	      0.00000000	      0.00000000	     23.10412684	      2.06567991	     32.90474565	     -8.40691491	    -19.30097442	     30.35615446	     27.34184414	     56.54853197	     -6.61231685	     -7.56787831	     61.30136024	     -1.56834547	     13.65372520	    138.86321543	     89.11697259	    -11.92084559	     27.51014561
      6.86440678	      4.25664283	     -0.62706290	     84.06778009	      0.28075428	      1.04739660	      0.22948562	     -0.86304058	      3.00811698	    -11.29440131	     11.01425999	      0.19223510	     19.19111450	     17.54024205	      0.00000000	     -3.60182106	     -3.27746587	    -12.60652282	      8.43536274	      0.14722485	     24.76995424	     -1.22262903	      0.00000000	     -0.12185483	      0.60019999	      0.35843206	     -0.22629660	      0.79826599	      0.38083406	     -0.20019529	      1.45932626	      0.38083406	     -0.13926788	      1.45932626	      0.31362805	     -0.11315439	      1.22392783	      0.29122605	     -0.06962785	      0.92970979	      0.26882404	     -0.87039683	      6.78958237	      1.99349157	      0.00000000	      0.00000000	     23.31667211	      2.29924508	     33.20797504	     -8.42911751	    -19.23067263	     30.06466443	     27.22406092	     58.65764376	     -6.85749978	     -7.17113533	     61.51474512	     -1.58160869	     13.28980296	    139.22356958	     89.11675823	    -10.85299387	     28.28848272
      6.88135593	      4.20281068	     -0.72285445	     83.93377369	      0.28093423	      1.04731201	      0.22944462	     -0.75534957	      2.95742494	    -11.13663995	     11.02696650	      0.19245687	     19.21915734	     17.53206420	      0.00000000	     -3.46460128	     -3.12619929	    -11.25428462	      8.58424703	      0.14982337	     24.11940412	     -3.75191226	      0.00000000	     -0.11674366	      0.59612491	      0.35389367	     -0.21680465	      0.79284613	      0.37601203	     -0.19179816	      1.44941811	      0.37601203	     -0.13342633	      1.44941811	      0.30965697	     -0.10840816	      1.21561792	      0.28753861	     -0.06670733	      0.92339749	      0.26542026	     -0.83388828	      6.74348423	      1.96825045	      0.00000000	      0.00000000	     23.57574039	      2.52194585	     33.53427001	     -8.21308465	    -19.34598071	     31.26266360	     26.95291737	     59.89348489	     -7.53013692	     -7.09096078	     61.74739337	     -1.64884574	     13.23860255	    139.50247974	     89.12839343	    -10.32385159	     29.08423903
      6.89830508	      4.14191970	     -0.82964773	     83.74737895	      0.28128155	      1.04728415	      0.22932178	     -0.63499698	      2.89649489	    -10.96405702	     11.06413071	      0.19310551	     19.25288972	     17.58068501	      0.00000000	     -3.35184826	     -3.07859837	    -11.56451186	      8.74103453	      0.15255983	     23.83116401	     -3.94119397	      0.00000000	     -0.10741454	      0.59002226	      0.35181972	     -0.19947953	      0.78472961	      0.37380845	     -0.17647134	      1.43458013	      0.37380845	     -0.12276407	      1.43458013	      0.30784225	     -0.09974514	      1.20317340	      0.28585352	     -0.06137667	      0.91394449	      0.26386479	     -0.76725129	      6.67444985	      1.95671573	      0.00000000	      0.00000000	     23.82739079	      2.71755559	     33.82028212	     -8.08757000	    -19.40137098	     31.76435989	     26.84711151	     61.92521992	     -8.23129629	     -6.82821695	     61.94853648	     -1.76016682	     13.34912119	    139.73425007	     89.13520140	     -9.96419767	     29.91182466
      6.91525424	      4.08299240	     -0.91508476	     83.62341816	      0.28153860	      1.04732043	      0.22923110	     -0.55115783	      2.83773941	    -10.78575937	     11.08276799	      0.19343079	     19.26340423	     17.59121059	      0.00000000	     -3.25603396	     -3.02891826	    -11.74603239	      8.87828248	      0.15495526	     23.52259280	     -4.13129928	      0.00000000	     -0.10063832	      0.58308227	      0.33613091	     -0.18689543	      0.77549943	      0.35713909	     -0.16533870	      1.41770624	      0.35713909	     -0.11501954	      1.41770624	      0.29411454	     -0.09345275	      1.18902137	      0.27310636	     -0.05750474	      0.90319444	      0.25209818	     -0.71884947	      6.59594331	      1.86945927	      0.00000000	      0.00000000	     23.94048599	      2.89372172	     34.19725607	     -7.92587227	    -19.44345438	     32.19588072	     26.75785105	     62.41735376	     -8.34774571	     -7.06627744	     62.13995651	     -1.86675136	     13.44773652	    139.86281870	     89.13025232	     -9.19971681	     30.58626061
      6.93220339	      4.01788017	     -0.97723649	     83.57835834	      0.28170901	      1.04735268	      0.22902397	     -0.52244959	      2.75988607	    -10.80895545	     11.06876157	      0.19318633	     19.27687900	     17.80230758	      0.00000000	     -3.20542776	     -2.97144838	    -11.88977179	      8.94745657	      0.15616258	     23.30144093	     -4.10531749	      0.00000000	     -0.09453891	      0.57291905	      0.32420008	     -0.17556820	      0.76198234	      0.34446259	     -0.15531797	      1.39299539	      0.34446259	     -0.10804852	      1.39299539	      0.28367507	     -0.08778883	      1.16829654	      0.26341257	     -0.05401953	      0.88745162	      0.24315006	     -0.67528196	      6.48097493	      1.80310361	      0.00000000	      0.00000000	     24.05441035	      2.96352479	     34.27796019	     -7.96857477	    -19.44110264	     31.60185696	     27.10718220	     62.64268782	     -8.34556537	     -6.88610430	     62.29960965	     -1.88909015	     13.57188110	    139.82079884	     89.11893729	     -8.24363595	     30.79970477
      6.94915254	      4.01421707	     -0.98057706	     83.32475643	      0.28207675	      1.04743948	      0.22898255	     -0.51147549	      2.73446812	    -10.50350940	     11.13064524	      0.19426641	     19.34930821	     17.84465791	      0.00000000	     -3.23364301	     -2.97139276	    -12.38407430	      9.03693629	      0.15772429	     23.27471197	     -3.81353977	      0.00000000	     -0.10389469	      0.57080776	      0.38488582	     -0.19294283	      0.75917432	      0.40894119	     -0.17068859	      1.38786199	      0.40894119	     -0.11874124	      1.38786199	      0.33677510	     -0.09647661	      1.16399119	      0.31271973	     -0.05936543	      0.88418122	      0.28866437	     -0.74210938	      6.45709157	      2.14061949	      0.00000000	      0.00000000	     24.28008254	      2.76260751	     34.13737458	     -7.98141378	    -19.59903292	     31.25134110	     27.62342412	     62.00779848	     -8.24646232	     -6.75473936	     62.44169967	     -1.81753931	     13.73940039	    139.55130476	     89.12240257	     -7.34637975	     30.25069702
      6.96610169	      3.91541803	     -1.08757883	     83.51311975	      0.28222007	      1.04718942	      0.22864287	     -0.49831289	      2.70535352	    -10.21145423	     10.96907243	      0.19144643	     19.34747124	     17.42160794	      0.00000000	     -3.04196224	     -2.88418178	    -11.74037489	      9.18735497	      0.16034959	     23.13379933	     -4.49173409	      0.00000000	     -0.08562086	      0.55308308	      0.41523922	     -0.15900649	      0.73560050	      0.44119167	     -0.14066650	      1.34476621	      0.44119167	     -0.09785608	      1.34476621	      0.36333431	     -0.07950753	      1.12784702	      0.33738186	     -0.04892376	      0.85672570	      0.31142941	     -0.61158121	      6.25658646	      2.30943595	      0.00000000	      0.00000000	     24.23651983	      2.95379403	     33.97061906	     -8.46697461	    -19.33372960	     28.74494576	     28.38758213	     61.17642909	     -7.68607313	     -5.61140870	     62.63670970	     -1.43616931	     13.56512455	    139.33332284	     89.09337510	     -5.35069960	     31.08591408
      6.98305085	      3.89142302	     -1.12179636	     83.58020377	      0.28259512	      1.04721259	      0.22840528	     -0.51021898	      2.71192992	    -10.21266483	     10.92817862	      0.19073270	     19.36118908	     17.42364580	      0.00000000	     -3.00804184	     -2.88680054	    -11.71691042	      9.19355586	      0.16045782	     23.13694381	     -4.48845087	      0.00000000	     -0.08097195	      0.54758447	      0.43484193	     -0.15037301	      0.72828735	      0.46201956	     -0.13302882	      1.33139689	      0.46201956	     -0.09254284	      1.33139689	      0.38048669	     -0.07519055	      1.11663426	      0.35330907	     -0.04626737	      0.84820835	      0.32613145	     -0.57837454	      6.19438509	      2.41846039	      0.00000000	      0.00000000	     24.21958908	      2.93153082	     33.97888842	     -8.28393178	    -19.38454346	     28.68157622	     28.47444219	     61.15932229	     -7.65721439	     -5.61411797	     62.63501251	     -1.41652433	     13.60321906	    139.22111190	     89.09312093	     -5.31088155	     31.09203877
